<svg width="657" height="213" viewBox="0 0 657 213" fill="none" xmlns="http://www.w3.org/2000/svg">
<path d="M201.284 41.5208C222.825 41.5208 239.273 46.3489 250.638 55.9999C262.013 65.6562 267.7 80.4999 267.7 100.542V166.521H220.575V150.354C214.742 162.635 203.143 168.771 185.784 168.771C176.06 168.771 167.794 167.088 160.992 163.729C154.185 160.354 149.023 155.792 145.513 150.042C141.997 144.281 140.242 137.802 140.242 130.604C140.242 118.495 144.872 109.302 154.138 103.021C163.414 96.7291 177.482 93.5833 196.346 93.5833H216.763C215.122 84.0155 207.414 79.2291 193.638 79.2291C188.107 79.2291 182.497 80.0937 176.804 81.8124C171.122 83.5208 166.263 85.8749 162.221 88.8749L146.075 55.4374C153.101 51.0937 161.586 47.6874 171.534 45.2291C181.492 42.7603 191.409 41.5208 201.284 41.5208ZM201.054 138.25C204.638 138.25 207.851 137.281 210.7 135.333C213.544 133.391 215.643 130.474 216.992 126.583V118.042H204.429C194.096 118.042 188.929 121.49 188.929 128.375C188.929 131.208 190.013 133.562 192.179 135.437C194.357 137.312 197.315 138.25 201.054 138.25Z" fill="#0E3B7A"/>
<path d="M371.596 41.5208C382.372 41.5208 392.283 44.1041 401.325 49.2708C410.377 54.427 417.559 61.8697 422.867 71.6041C428.184 81.328 430.846 92.5416 430.846 105.25C430.846 117.974 428.184 129.161 422.867 138.812C417.559 148.453 410.377 155.854 401.325 161.021C392.283 166.187 382.372 168.771 371.596 168.771C357.981 168.771 347.585 165.25 340.408 158.208V210.062H289.7V43.7708H337.95V53.8541C345.268 45.6353 356.481 41.5208 371.596 41.5208ZM359.492 129.271C365.325 129.271 370.106 127.182 373.846 123C377.58 118.807 379.45 112.891 379.45 105.25C379.45 97.6249 377.58 91.6822 373.846 87.4166C370.106 83.1562 365.325 81.0208 359.492 81.0208C353.658 81.0208 348.867 83.1562 345.117 87.4166C341.377 91.6822 339.513 97.6249 339.513 105.25C339.513 112.891 341.377 118.807 345.117 123C348.867 127.182 353.658 129.271 359.492 129.271Z" fill="url(#paint0_linear_0_3)"/>
<path d="M446.784 -1.52588e-05H497.493V166.521H446.784V-1.52588e-05Z" fill="url(#paint1_linear_0_3)"/>
<path d="M656.608 43.7708L606.108 168.979C599.675 184.99 591.67 196.213 582.087 202.646C572.514 209.073 560.774 212.292 546.858 212.292C539.983 212.292 533.066 211.281 526.108 209.271C519.149 207.255 513.649 204.604 509.608 201.312L526.441 166.521C528.983 168.463 531.858 170.031 535.066 171.229C538.285 172.422 541.399 173.021 544.399 173.021C549.925 173.021 554.113 171.375 556.962 168.083L505.337 43.7708H557.42L582.774 109.521L608.587 43.7708H656.608Z" fill="url(#paint2_linear_0_3)"/>
<path d="M4.76837e-06 166.831V7.49756H73.1667C80.9427 7.49756 88.125 9.11214 94.7083 12.3309C101.292 15.5392 106.938 19.7267 111.646 24.8934C116.354 30.0496 120.052 35.9559 122.75 42.6226C125.443 49.2788 126.792 55.9715 126.792 62.7059C126.792 71.9871 124.771 80.6226 120.729 88.6226C116.698 96.6226 111.094 103.175 103.917 108.268L139.813 166.831H90.4375L60.1458 117.914H43.7708V166.831H4.76837e-06ZM43.7708 79.7476H71.375C74.0521 79.7476 76.5521 78.258 78.875 75.2684C81.1927 72.284 82.3542 68.0965 82.3542 62.7059C82.3542 57.1642 81.0052 52.9351 78.3125 50.0184C75.6302 47.1017 72.9427 45.6434 70.25 45.6434H43.7708V79.7476Z" fill="#0E3B7A"/>
<defs>
<linearGradient id="paint0_linear_0_3" x1="292.5" y1="47.4976" x2="420" y2="148.998" gradientUnits="userSpaceOnUse">
<stop stop-color="#0E3B7A"/>
<stop offset="1" stop-color="#1589B2"/>
</linearGradient>
<linearGradient id="paint1_linear_0_3" x1="288" y1="44.9975" x2="497" y2="161.498" gradientUnits="userSpaceOnUse">
<stop stop-color="#0E3B7A"/>
<stop offset="0.763532" stop-color="#1589B2"/>
<stop offset="1" stop-color="#17A1C3"/>
</linearGradient>
<linearGradient id="paint2_linear_0_3" x1="293.5" y1="49.4976" x2="603.5" y2="176.498" gradientUnits="userSpaceOnUse">
<stop stop-color="#0E3B7A"/>
<stop offset="0.718417" stop-color="#17A1C3"/>
<stop offset="1" stop-color="#1AC9E0"/>
</linearGradient>
</defs>
</svg>
